<svg xmlns="http://www.w3.org/2000/svg" viewBox="0 0 450.49 457.4"><defs><style>.cls-1{opacity:0.6;}.cls-2{fill:#ebebeb;}.cls-3{fill:#dbdbdb;}.cls-10,.cls-4,.cls-7,.cls-9{fill:#ffc727;}.cls-5{opacity:0.9;}.cls-11,.cls-12,.cls-19,.cls-6,.cls-8{fill:#fff;}.cls-18,.cls-20,.cls-7{opacity:0.1;}.cls-8{opacity:0.8;}.cls-9{opacity:0.5;}.cls-10,.cls-14,.cls-19{opacity:0.7;}.cls-11{opacity:0.4;}.cls-12,.cls-13{opacity:0.3;}.cls-15{fill:#455a64;}.cls-16{fill:#37474f;}.cls-17{fill:#263238;}.cls-21{fill:#a6a6a6;}.cls-22{fill:#ff9abb;}</style></defs><g id="Background_Complete" data-name="Background Complete"><g class="cls-1"><path class="cls-2" d="M256.12,255.13c-.09,6.65-11.37,26.66-19.93,29.53s-19.51,1.07-19.51,1.07-4.3,20.43-16.33,23S174.2,307.17,170,305.1c-3.52-1.73-8.58-8.72-10.14-11-.31-.44-.48-.7-.48-.7s-.25,1-.81,2.5h0a38,38,0,0,1-6.23,11.21,19.54,19.54,0,0,1-4.54,4c-8.23,5.06-40.19,5-49.83-.1-7.35-3.89-11.23-11.17-12.66-14.38h0c-.41-.92-.61-1.51-.64-1.59s-.23.27-.51.59c-1.71,2-7.35,8-12.43,8.8-6.08,1-13.68-4.51-15.19-7.77s-.86-10.12-.86-10.12-15,2.12-22.08-6.58-7.7-18.81-2.14-24.4S50,248,62.52,249.17l.67.06A11.07,11.07,0,0,1,63,248c-.61-4.18-1.64-18.18,9.26-28.62,9-8.67,23.26-15.45,34.86-17,5-.66,9.81-.77,12.94,1.24,12.14,7.77,13.23,26,13.23,26s7.34-7.53,12.86-11.13c6.59-4.29,19.43-2.56,23.38-.38,3.76,2.06,8.1,8.59,10.12,13.42l.29.75s.36-.49,1.05-1.24c1.92-2.14,6.38-6.41,12.28-7.69,7.49-1.62,15.1,3.12,24.2,11.42a0,0,0,0,1,0,0c.59.55,1.2,1.11,1.81,1.69l.09,0c1.29-.45,16.21-5.49,24.9-.54C253.35,241.16,256.2,248.47,256.12,255.13Z" transform="translate(-24.76 -24.5)"/><path class="cls-2" d="M442,78.31C441.86,85,430.58,105,422,107.84s-19.51,1.07-19.51,1.07-4.3,20.43-16.33,23-26.15-1.52-30.38-3.59c-3.52-1.73-8.58-8.72-10.14-11-.31-.44-.48-.7-.48-.7s-.26,1-.81,2.5h0a37.84,37.84,0,0,1-6.24,11.21,19.29,19.29,0,0,1-4.53,4c-8.23,5.06-40.19,5-49.83-.1-7.35-3.89-11.23-11.17-12.66-14.38h0c-.41-.92-.61-1.51-.64-1.59s-.23.27-.52.6c-1.7,2-7.34,8-12.42,8.79-6.08,1-13.68-4.51-15.19-7.77s-.86-10.11-.86-10.11-15,2.11-22.08-6.59-7.7-18.81-2.15-24.39,18.6-7.55,31.11-6.42l.67.06a11.07,11.07,0,0,1-.21-1.22C248.2,67,247.17,53,258.07,42.57c9-8.67,23.26-15.45,34.86-17,5-.66,9.81-.77,12.94,1.24C318,34.61,319.1,52.89,319.1,52.89s7.34-7.53,12.86-11.14c6.59-4.29,19.43-2.56,23.38-.38,3.76,2.06,8.1,8.59,10.12,13.42l.29.75s.36-.49,1.05-1.24c1.92-2.14,6.38-6.41,12.28-7.69,7.49-1.62,15.1,3.12,24.2,11.42h0c.59.55,1.2,1.11,1.81,1.69l.09,0c1.29-.45,16.21-5.49,24.9-.54C439.18,64.34,442,71.65,442,78.31Z" transform="translate(-24.76 -24.5)"/><path class="cls-2" d="M303.42,389.33c.06-4.92,8.41-19.71,14.73-21.83s14.43-.79,14.43-.79,3.18-15.11,12.07-17,19.33,1.12,22.46,2.65c2.61,1.29,6.35,6.45,7.5,8.11.23.32.35.52.35.52s.19-.72.6-1.85a0,0,0,0,1,0,0,28.45,28.45,0,0,1,4.61-8.29,14.71,14.71,0,0,1,3.36-2.94c6.08-3.74,29.71-3.68,36.84.08,5.43,2.87,8.3,8.25,9.36,10.63h0c.3.69.45,1.12.47,1.18l.38-.44c1.26-1.45,5.43-5.9,9.19-6.51,4.49-.72,10.12,3.34,11.23,5.75s.64,7.48.64,7.48S462.72,364.53,468,371s5.69,13.9,1.59,18-13.75,5.57-23,4.74l-.49-.05s.07.32.15.91c.45,3.08,1.21,13.44-6.85,21.16-6.69,6.41-17.2,11.42-25.77,12.54-3.71.49-7.26.57-9.57-.91-9-5.75-9.78-19.26-9.78-19.26s-5.43,5.57-9.51,8.23c-4.87,3.18-14.37,1.9-17.29.29s-6-6.36-7.48-9.93c-.08-.19-.14-.38-.21-.55,0,0-.27.36-.78.92-1.42,1.58-4.71,4.74-9.07,5.68-5.54,1.2-11.17-2.31-17.9-8.44h0l-1.34-1.25-.06,0c-1,.33-12,4.06-18.42.4C305.46,399.66,303.36,394.25,303.42,389.33Z" transform="translate(-24.76 -24.5)"/></g><path class="cls-3" d="M389.58,158l-6.38,18.64a14.51,14.51,0,0,1-18.87,9.23A14.86,14.86,0,0,1,355.1,167l10.21-29.83c.1-.28.39-.18.49-.47-.19-.38-.19-.38-.09-.67a15.28,15.28,0,0,1,18.85-9.25c18.08,6.19,37.61-3.13,43.7-20.91,6.19-18.07-3.62-37.13-21.7-43.32a33.51,33.51,0,0,0-32.93,6.34,14.94,14.94,0,0,1-21.26-1.51,14.77,14.77,0,0,1,1.71-20.88,63.55,63.55,0,0,1,62.11-12.05c33.27,11.4,51.27,47.68,39.88,80.94A63.65,63.65,0,0,1,389.58,158Zm-21.5,62.79L366.31,226a14.51,14.51,0,0,1-18.87,9.25,14.88,14.88,0,0,1-9.23-18.87l1.77-5.16A15.06,15.06,0,0,1,358.83,202,14.68,14.68,0,0,1,368.08,220.8Z" transform="translate(-24.76 -24.5)"/><path class="cls-3" d="M60.21,231.28,57.79,218.2a9.8,9.8,0,0,1,8-11.69,10,10,0,0,1,11.68,8l3.88,20.94c0,.19-.17.23-.13.44.24.15.24.15.28.36a10.32,10.32,0,0,1-8,11.69,22.93,22.93,0,1,0,8.35,45.08A22.62,22.62,0,0,0,99.13,278.4a10.1,10.1,0,0,1,13-6.16,10,10,0,0,1,5.92,12.85,43,43,0,1,1-57.85-53.81Zm-8.16-44.07-.67-3.62a9.78,9.78,0,0,1,8-11.69,10.05,10.05,0,0,1,11.69,8l.67,3.62a10.18,10.18,0,0,1-8,11.69A9.91,9.91,0,0,1,52.05,187.21Z" transform="translate(-24.76 -24.5)"/><path class="cls-3" d="M434.66,391.91l-1.73,10a7.48,7.48,0,0,1-8.85,6.23,7.66,7.66,0,0,1-6.22-8.84l2.78-16c0-.15.18-.12.21-.27-.13-.18-.13-.18-.11-.34a7.88,7.88,0,0,1,8.84-6.23,17.48,17.48,0,1,0,6-34.44,17.26,17.26,0,0,0-16.23,5.89,7.69,7.69,0,0,1-10.93,1,7.59,7.59,0,0,1-.82-10.75,32.8,32.8,0,1,1,27.08,53.8Zm-5.84,33.67-.48,2.77a7.48,7.48,0,0,1-8.85,6.23,7.67,7.67,0,0,1-6.22-8.85l.48-2.77a7.76,7.76,0,0,1,8.84-6.22A7.56,7.56,0,0,1,428.82,425.58Z" transform="translate(-24.76 -24.5)"/></g><g id="Clouds"><path class="cls-4" d="M379.5,398.21c5.64,40-23.54,36.56-23.54,36.56s2.42,6.56-5.82,12.87c-7.24,5.55-27.14,3.43-27.14,3.43-3,7.17-7.76,14.93-14.88,16.62-13.92,3.31-30.23-1.87-35.09-4.6A27,27,0,0,1,260.78,448s-4,15.56-27.34,22.91c-11,3.48-54,8.87-74.59-1.22-24.75-12.11-24-25.33-24-25.33s-13.15-.15-21.33-11.4-6.86-26.53-.43-33.78,21.49-9.81,36-8.36l.77.08s-.12-.56-.25-1.58c-.69-5.41-1.85-23.56,10.76-37.09C170.73,341,188,337,201.38,334.76c19.28-3.19,37.23,18.74,37.23,18.74,7.62-5.57,25.33-8.46,34-3,6.32,4,11.89,18,12,18.34,0,0,8.59-9.92,15.41-11.58,8.66-2.12,17.45,4,27.94,14.75h0l2.09,2.18.1-.05C331.7,373.57,374.6,363.48,379.5,398.21Z" transform="translate(-24.76 -24.5)"/><g class="cls-5"><path class="cls-6" d="M379.5,398.21c5.64,40-23.54,36.56-23.54,36.56s2.42,6.56-5.82,12.87c-7.24,5.55-27.14,3.43-27.14,3.43-3,7.17-7.76,14.93-14.88,16.62-13.92,3.31-30.23-1.87-35.09-4.6A27,27,0,0,1,260.78,448s-4,15.56-27.34,22.91c-11,3.48-54,8.87-74.59-1.22-24.75-12.11-24-25.33-24-25.33s-13.15-.15-21.33-11.4-6.86-26.53-.43-33.78,21.49-9.81,36-8.36l.77.08s-.12-.56-.25-1.58c-.69-5.41-1.85-23.56,10.76-37.09C170.73,341,188,337,201.38,334.76c19.28-3.19,37.23,18.74,37.23,18.74,7.62-5.57,25.33-8.46,34-3,6.32,4,11.89,18,12,18.34,0,0,8.59-9.92,15.41-11.58,8.66-2.12,17.45,4,27.94,14.75h0l2.09,2.18.1-.05C331.7,373.57,374.6,363.48,379.5,398.21Z" transform="translate(-24.76 -24.5)"/></g><path class="cls-7" d="M356,434.77s2.42,6.56-5.82,12.88c-7.25,5.55-27.14,3.42-27.14,3.42-3,7.17-7.76,14.93-14.88,16.62-13.92,3.3-30.23-1.87-35.09-4.6A27,27,0,0,1,260.79,448s-4.05,15.57-27.35,22.91c-11,3.48-54,8.87-74.59-1.22-24.74-12.11-24-25.33-24-25.33s-13.15-.14-21.34-11.4c-7.39-10.17-7-23.65-2.12-31.49-3.56,13.68,10.11,30.81,29.92,32.15,0,0,10.17,22.59,51.89,25.38,43.24,2.89,66.66-21.32,66.66-21.32s7.85,17.54,24.91,20.43S318.44,441,318.44,441s15.89,4.46,23.67,0,10.5-13.59,10.5-13.59,22.95,3.32,27.59-20.8C380.89,437.73,356,434.77,356,434.77Z" transform="translate(-24.76 -24.5)"/><path class="cls-8" d="M379.49,398.17c-.2-.62-3.58-10.72-15.35-18.06-12.16-7.58-35.63-1.67-35.63-1.67S312,361,302.7,361s-19.45,11.14-19.45,11.14-11.74-18.93-22.32-19.56-24.54,6.79-24.54,6.79-11.64-11.06-19.65-14.18-21.6-4.9-41.86,4.68S150.55,394,150.55,394C133,388.9,115.8,397,115,397.35c7.14-5.75,20.87-7.84,34-6.53l.76.08s-.11-.56-.24-1.59c-.69-5.41-1.85-23.54,10.76-37.08C170.73,341,188,337,201.38,334.76c19.29-3.19,37.23,18.75,37.23,18.75,7.62-5.58,25.33-8.47,34-3,6.32,4,11.89,18,12,18.34,0,0,8.59-9.93,15.41-11.59,8.65-2.12,17.45,4,27.94,14.75h0l2.09,2.18.1-.05C331.7,373.57,374.57,363.49,379.49,398.17Z" transform="translate(-24.76 -24.5)"/><path class="cls-4" d="M475.24,182.88c-.08,6.17-3.43,21.5-17.36,27.37-7.29,3.07-17,1-17,1s-3.76,18.92-14.23,21.28-18.49,1.41-26.43-3.31c-3-1.76-9.23-10.79-9.23-10.79s-.8,10.94-10.1,16.4c-12,7-35,4.64-43.36-.06-6.39-3.59-9.59-13.12-9.62-13.2s-3.16,5.59-13.2,7.12c-5.31.81-11.3-2.75-13.21-7.19-1.85-4.28-.75-9.37-.75-9.37s-13,2-19.2-6.08-6.69-17.41-1.85-22.59,16.18-7,27.07-6l.57.06s-.08-.41-.18-1.14c-.52-3.86-3.27-16.68,6.22-26.35,7.88-8,21-14.24,31.23-13.88,23.11.83,23.73,23.23,23.73,23.23s2.35-5.47,11.2-10.32c6.12-3.36,16.66-1.89,20.34-.37,8.14,3.36,9,12.9,9,13.12,0,0,6.48-7,11.59-8.28,16.57-4,22.11,11.6,22.64,12.13l.08,0c1.12-.42,14.1-5.1,21.67-.52C472.84,170,475.32,176.72,475.24,182.88Z" transform="translate(-24.76 -24.5)"/><g class="cls-5"><path class="cls-6" d="M475.24,182.88c-.08,6.17-3.43,21.5-17.36,27.37-7.29,3.07-17,1-17,1s-3.76,18.92-14.23,21.28-18.49,1.41-26.43-3.31c-3-1.76-9.23-10.79-9.23-10.79s-.8,10.94-10.1,16.4c-12,7-35,4.64-43.36-.06-6.39-3.59-9.59-13.12-9.62-13.2s-3.16,5.59-13.2,7.12c-5.31.81-11.3-2.75-13.21-7.19-1.85-4.28-.75-9.37-.75-9.37s-13,2-19.2-6.08-6.69-17.41-1.85-22.59,16.18-7,27.07-6l.57.06s-.08-.41-.18-1.14c-.52-3.86-3.27-16.68,6.22-26.35,7.88-8,21-14.24,31.23-13.88,23.11.83,23.73,23.23,23.73,23.23s2.35-5.47,11.2-10.32c6.12-3.36,16.66-1.89,20.34-.37,8.14,3.36,9,12.9,9,13.12,0,0,6.48-7,11.59-8.28,16.57-4,22.11,11.6,22.64,12.13l.08,0c1.12-.42,14.1-5.1,21.67-.52C472.84,170,475.32,176.72,475.24,182.88Z" transform="translate(-24.76 -24.5)"/></g><path class="cls-7" d="M473.91,191c-2,6.88-6.55,15.26-16,19.25-7.28,3.06-17,1-17,1s-3.76,18.92-14.23,21.28-18.49,1.4-26.43-3.31c-3-1.76-9.23-10.79-9.23-10.79s-.8,10.94-10.1,16.4c-12,7-35,4.64-43.36-.06-6.39-3.6-9.59-13.12-9.62-13.2s-3.16,5.59-13.2,7.12c-5.31.8-11.3-2.75-13.21-7.19-1.85-4.28-.75-9.37-.75-9.37s-13,2-19.2-6.08a23,23,0,0,1-5.1-13.5c1.06,10.85,22.56,16.38,29,14.38,0,0-.68,12.2,8,13.08s14.73-5.1,14.73-5.1,14.6,15.92,33.68,17.92,29-20.15,29-20.15,15.49,13.53,28.34,12.87,21.07-18.17,21.07-18.17S465.05,212,473.91,191Z" transform="translate(-24.76 -24.5)"/><path class="cls-8" d="M473.1,173.53c-8.92-13.68-31.49-5.56-31.49-5.56s-5.2-11.37-14.72-11.64-18.81,8-18.81,8-1.68-9.9-14-12.47-26.62,10.07-26.62,10.07c-4-13.3-11.51-24.82-35.89-17.06s-21.89,37-21.89,37c-17-4.43-30,1.58-30,1.58,4.75-5.09,16.18-7,27.07-6l.58.06s-.09-.41-.19-1.14c-.52-3.87-3.26-16.68,6.23-26.35,7.87-8,21-14.24,31.22-13.88,23.11.82,23.73,23.23,23.73,23.23s2.35-5.47,11.2-10.32c6.12-3.36,16.66-1.89,20.34-.37,8.15,3.36,9,12.9,9,13.12,0,0,6.48-7,11.6-8.28,16.56-4.06,22.1,11.6,22.63,12.13l.08,0c1.12-.42,14.11-5.1,21.67-.52A21.35,21.35,0,0,1,473.1,173.53Z" transform="translate(-24.76 -24.5)"/><path class="cls-4" d="M232.39,98c-3.19,4.86-11.85,6.5-11.85,6.5s1.3,17.58-8,23c-20.58,12-31-5.54-31-5.54s-4.67,19.46-29.23,28.14c-19.11,6.75-38.41-1.42-44.56-6.09C100.69,138.63,96.42,131,95,128.77l-.31-.48s-6.73,6.24-19.24,7.85a28.07,28.07,0,0,1-24-8.16c-6.44-6.83-4.57-16.21-4.57-16.21l-.63.09c-2.29.26-10.4.69-16.55-5.1-7.25-6.82-6.53-23,2.57-30.76,11.61-9.92,28-8,28-8S59.46,48.93,73,37.53s40.9-17,54.57-9.92c15.93,8.21,20.94,27,20.75,27.66a44.41,44.41,0,0,1,35-8.27c20.64,3.82,19.28,31.52,19.28,31.52a36.57,36.57,0,0,1,20.59-3C234.29,77.41,235.57,93.13,232.39,98Z" transform="translate(-24.76 -24.5)"/><g class="cls-5"><path class="cls-6" d="M232.39,98c-3.19,4.86-11.85,6.5-11.85,6.5s1.3,17.58-8,23c-20.58,12-31-5.54-31-5.54s-4.67,19.46-29.23,28.14c-19.11,6.75-38.41-1.42-44.56-6.09C100.69,138.63,96.42,131,95,128.77l-.31-.48s-6.73,6.24-19.24,7.85a28.07,28.07,0,0,1-24-8.16c-6.44-6.83-4.57-16.21-4.57-16.21l-.63.09c-2.29.26-10.4.69-16.55-5.1-7.25-6.82-6.53-23,2.57-30.76,11.61-9.92,28-8,28-8S59.46,48.93,73,37.53s40.9-17,54.57-9.92c15.93,8.21,20.94,27,20.75,27.66a44.41,44.41,0,0,1,35-8.27c20.64,3.82,19.28,31.52,19.28,31.52a36.57,36.57,0,0,1,20.59-3C234.29,77.41,235.57,93.13,232.39,98Z" transform="translate(-24.76 -24.5)"/></g><path class="cls-7" d="M232.38,98c-3.19,4.87-11.84,6.51-11.84,6.51s1.3,17.57-8,23c-20.59,12-31-5.55-31-5.55s-4.67,19.47-29.24,28.15c-19.11,6.75-38.4-1.42-44.55-6.09C100.69,138.63,96.42,131,95,128.77l-.31-.49s-6.74,6.25-19.24,7.86a28.1,28.1,0,0,1-24-8.16c-6.45-6.84-4.58-16.22-4.58-16.22s-.22,0-.63.1c-2.29.26-10.39.69-16.55-5.1s-6.57-18.49-.85-26.9C25.6,91.2,32.76,105.32,51,104.65c0,0-1,18.35,17,22.06s27.77-5.93,27.77-5.93,17.46,23.95,42.56,22.12,42.07-26,42.07-26,13.14,10.91,24.94,6.42,11.47-23,11.47-23,18.81-.27,16.47-14.1C234.41,90.83,233.91,95.66,232.38,98Z" transform="translate(-24.76 -24.5)"/><path class="cls-8" d="M229.22,78.64c-10.61-4.62-28.15,1.94-28.15,1.94s-2.88-27-19.28-30.3-35.52,8.66-35.52,8.66-9.82-30.71-44.69-25.51C64.79,38.92,64.07,71.26,64.07,71.26,55.2,68.51,39.31,71.5,32.23,76c11.61-9.92,28-8,28-8S59.45,48.92,73,37.53s40.9-17,54.57-9.92c15.94,8.21,21,27,20.76,27.66A44.28,44.28,0,0,1,183.26,47c20.65,3.81,19.29,31.51,19.29,31.51a36.57,36.57,0,0,1,20.58-3A11.09,11.09,0,0,1,229.22,78.64Z" transform="translate(-24.76 -24.5)"/></g><g id="Light_bulb" data-name="Light bulb"><path class="cls-9" d="M378.32,284.17c-1.08,9.87-5,28.4-19,40.59a66.27,66.27,0,0,1-30.72,15.3,43.2,43.2,0,0,1-16.55,9.39,47.17,47.17,0,0,1-10.21,1.78c-1.81,9.89-3.32,19.73-3.84,23.25h-96.1c-.52-3.51-2-13.35-3.84-23.25a47.17,47.17,0,0,1-10.21-1.78,43.12,43.12,0,0,1-16.55-9.39,66.32,66.32,0,0,1-30.72-15.3c-14-12.19-17.88-30.71-19-40.58-6.92-9.17-10.34-18.92-10.2-29a42.88,42.88,0,0,1,5.17-19.66,35.79,35.79,0,0,1,.19-17.74,26.18,26.18,0,0,1-.5-14.57,31.69,31.69,0,0,1,8.5-14.38,38.76,38.76,0,0,1,11.56-31.35,44.68,44.68,0,0,1,5.46-4.64,33.87,33.87,0,0,1,14.93-28.16c3.23-10.21,10.52-18.27,20.88-23a50.5,50.5,0,0,1,11.08-3.51c6.76-5.53,16-8.43,27.05-8.43,1.38,0,2.63,0,3.74.11a32.25,32.25,0,0,1,11.77-2.25A31.78,31.78,0,0,1,250,93.71,31.81,31.81,0,0,1,268.7,87.6a32.33,32.33,0,0,1,11.77,2.25c1.1-.07,2.36-.11,3.74-.11,11,0,20.28,2.9,27.05,8.43a50.43,50.43,0,0,1,11.05,3.5c10.38,4.72,17.67,12.78,20.9,23a33.87,33.87,0,0,1,14.93,28.16,45.44,45.44,0,0,1,5.46,4.64,38.77,38.77,0,0,1,11.57,31.35,31.6,31.6,0,0,1,8.48,14.37,26.21,26.21,0,0,1-.48,14.58,36,36,0,0,1,.19,17.75C390.18,248.18,391.77,266.3,378.32,284.17Z" transform="translate(-24.76 -24.5)"/><path class="cls-10" d="M369.1,280.49c-.47,6.82-3,25.73-16,37.11a56.22,56.22,0,0,1-28.9,13.56,35.15,35.15,0,0,1-14.73,9.14,36.51,36.51,0,0,1-10.05,1.5,28.79,28.79,0,0,1-5.3-.48c-3,14.77-5.7,33.16-5.7,33.16H211.56s-2.65-18.39-5.7-33.16a28.79,28.79,0,0,1-5.3.48,36.44,36.44,0,0,1-10-1.5,35.09,35.09,0,0,1-14.73-9.14,56.21,56.21,0,0,1-28.91-13.56c-13-11.38-15.53-30.29-16-37.11-14.9-17.94-10.26-34.66-3.8-43.84-3.06-6.8-2-14.15-.2-19.3a17.08,17.08,0,0,1-1.33-11.83c1.49-5.88,5.89-10.29,9.41-13-2.89-13.68,2.64-22.86,8.14-28.34a38.49,38.49,0,0,1,8.62-6.4c-2.28-14.9,6.47-23.36,13.31-27.06,1.79-9.16,7.56-16.31,16.56-20.41A41.9,41.9,0,0,1,193,107.1c5.07-5.15,12.83-7.85,22.74-7.85a50.81,50.81,0,0,1,5.33.27,23.52,23.52,0,0,1,10.18-2.4A22.68,22.68,0,0,1,250,107.23,22.7,22.7,0,0,1,268.7,97.12a23.52,23.52,0,0,1,10.17,2.4,51,51,0,0,1,5.34-.27c9.9,0,17.66,2.7,22.74,7.85a41.94,41.94,0,0,1,11.44,3.23c9,4.1,14.77,11.25,16.57,20.41,6.83,3.7,15.58,12.16,13.31,27.06a38.72,38.72,0,0,1,8.62,6.4c5.5,5.48,11,14.66,8.13,28.34,3.52,2.69,7.92,7.1,9.41,13a17,17,0,0,1-1.33,11.83c1.85,5.15,2.87,12.5-.2,19.3C379.36,245.83,384,262.55,369.1,280.49Z" transform="translate(-24.76 -24.5)"/><path class="cls-4" d="M241.29,135.31s6.83-8.14,5.2-18.11-12.92-17.55-23.91-10.67c0,0-18.57-3.37-25.85,7,0,0-23.76.42-25.1,21.76,0,0-18.27,5.2-11.73,26.26,0,0-25.4,8.14-16.79,33.83,0,0-17.38,9-8.32,21.49,0,0-6.23,11.65.9,20.35,0,0-18.42,17.83,2.22,40.72,0,0,.15,22.75,13.82,34.68s27.62,12.07,27.62,12.07,5.44,6.89,13.24,9.13c11.07,3.18,16.91-1,16.91-1A17,17,0,0,0,223.61,339c9.36-.42,19-12.63,18.57-35.38,0,0,8.47-22.32-7-42.68,0,0,16.34-19.51,2.67-41.42,0,0,5.94-3.65,6.84-13.34s-8.92-19.65-8.92-19.65,5.05-13.76,0-22C235.79,164.52,248,154.55,241.29,135.31Z" transform="translate(-24.76 -24.5)"/><path class="cls-11" d="M241.29,135.31s6.83-8.14,5.2-18.11-12.92-17.55-23.91-10.67c0,0-18.57-3.37-25.85,7,0,0-23.76.42-25.1,21.76,0,0-18.27,5.2-11.73,26.26,0,0-25.4,8.14-16.79,33.83,0,0-17.38,9-8.32,21.49,0,0-6.23,11.65.9,20.35,0,0-18.42,17.83,2.22,40.72,0,0,.15,22.75,13.82,34.68s27.62,12.07,27.62,12.07,5.44,6.89,13.24,9.13c11.07,3.18,16.91-1,16.91-1A17,17,0,0,0,223.61,339c9.36-.42,19-12.63,18.57-35.38,0,0,8.47-22.32-7-42.68,0,0,16.34-19.51,2.67-41.42,0,0,5.94-3.65,6.84-13.34s-8.92-19.65-8.92-19.65,5.05-13.76,0-22C235.79,164.52,248,154.55,241.29,135.31Z" transform="translate(-24.76 -24.5)"/><path class="cls-12" d="M235.79,186.56s9.81,10,8.91,19.66-6.82,13.33-6.82,13.33C251.54,241.46,235.2,261,235.2,261c15.45,20.36,7,42.69,7,42.69.45,22.74-9.21,34.95-18.57,35.37a16.94,16.94,0,0,1-14.1-6.17s-5.84,4.16-16.91,1c-7.81-2.24-13.25-9.12-13.25-9.12s-14-.14-27.62-12.08c-7.26-6.34-10.71-15.73-12.34-23.14a35.07,35.07,0,0,0,8.81,13.82c12.76,11.79,26.16,12.28,26.16,12.28s5,6.74,12.44,9.09c10.53,3.34,16.26-.51,16.26-.51a16.25,16.25,0,0,0,13.36,6.29c9-.17,18.59-11.64,18.82-33.47,0,0,8.76-21.21-5.48-41.13,0,0,16.23-18.31,3.74-39.68,0,0,5.81-3.34,6.94-12.62s-8-19.08-8-19.08,5.23-13.08.62-21.16c0,0,12-9.25,6.11-27.88,0,0,6.79-7.64,5.51-17.24s-11.9-17.17-22.64-10.85c0,0-17.72-3.71-25,6.08h-.24c7.32-10.26,25.76-6.91,25.76-6.91,11-6.88,22.28.7,23.92,10.67s-5.2,18.11-5.2,18.11c6.68,19.23-5.5,29.21-5.5,29.21C240.85,172.8,235.79,186.56,235.79,186.56Z" transform="translate(-24.76 -24.5)"/><path class="cls-4" d="M134.79,216.89c5.58,2.83,12.11,1.35,17.11-1.81a34.62,34.62,0,0,0,4.83-3.86,14,14,0,0,1-9.38,8.76c-4.23,1.33-10,.66-12.56-3.09Z" transform="translate(-24.76 -24.5)"/><path class="cls-4" d="M242.18,303.65c-10.5,8.84-22.82,7.76-31.59-2.57,12.62,7.27,17.87,7.79,31.59,2.57Z" transform="translate(-24.76 -24.5)"/><path class="cls-4" d="M179.35,324.71c-7.29-4.08-9.38-13.78-6.78-21,1.27,7.23,2.56,14.72,6.78,21Z" transform="translate(-24.76 -24.5)"/><path class="cls-4" d="M135.69,237.24c6.59,4.87,14.72,10.49,23.42,7.86a16.17,16.17,0,0,0,2.14-.91c.29-.18.92-.6,1.22-.77-2.8,4.73-9.87,5.47-14.86,3.66a22.22,22.22,0,0,1-11.92-9.84Z" transform="translate(-24.76 -24.5)"/><path class="cls-4" d="M171.63,135.31c.82,2.41,1.54,5,3.27,6.87l-.38.73a18.78,18.78,0,0,0-1,16.34c-3.87-3.19-4.72-8.71-3.16-13.19a15.56,15.56,0,0,1,2.2-4.31l0,1.2a11.15,11.15,0,0,1-1-7.64Z" transform="translate(-24.76 -24.5)"/><path class="cls-4" d="M159.9,161.57a61.22,61.22,0,0,0,7.72,9.4c-4.39-.94-7.83-5.17-7.72-9.4Z" transform="translate(-24.76 -24.5)"/><path class="cls-4" d="M196.73,113.55c-1.65,4.94-3.89,9.61-5.49,14.6-.89-5.28,1.68-10.8,5.49-14.6Z" transform="translate(-24.76 -24.5)"/><path class="cls-4" d="M216.86,126.75c-3.93-6.66-1.84-16.72,5.72-20.22a36.47,36.47,0,0,0-2.82,4.72c-2.41,4.87-2.76,10.14-2.9,15.5Z" transform="translate(-24.76 -24.5)"/><path class="cls-4" d="M230.22,143a50.74,50.74,0,0,0,11.07-7.7c-1.13,4.56-6.24,7.74-11.07,7.7Z" transform="translate(-24.76 -24.5)"/><path class="cls-4" d="M235.79,164.52a11.18,11.18,0,0,1-8.16,4.7,15.73,15.73,0,0,1,8.16-4.7Z" transform="translate(-24.76 -24.5)"/><path class="cls-4" d="M235.79,186.56c-2,4.39-7,7.58-11.88,8.42,1.69-1.37,4.15-3,5.94-4.25s4.19-2.87,5.94-4.17Z" transform="translate(-24.76 -24.5)"/><path class="cls-4" d="M237.87,219.55c-4,3.87-9.71,5.88-15.29,6.46,4.8-2.81,10-4.56,15.29-6.46Z" transform="translate(-24.76 -24.5)"/><path class="cls-4" d="M151,216.5a36,36,0,0,0,12.34,13c10.13,6.11,24.35,5.67,33.41-2.15a44.1,44.1,0,0,0,10.91-14.24,33,33,0,0,1-9,16.12c-6.94,7.15-18.23,9.38-28,6.72A28.45,28.45,0,0,1,151,216.5Z" transform="translate(-24.76 -24.5)"/><path class="cls-4" d="M180.49,212.91c-8-9.86-8.08-24.93.77-34.34a33.41,33.41,0,0,1,10-7.6,57.33,57.33,0,0,0-8.32,8.8c-7.49,9.68-7.27,22.35-2.43,33.14Z" transform="translate(-24.76 -24.5)"/><path class="cls-4" d="M154.55,180.52c8.27-5.33,19.91-1.32,22.45,7.89-1.19-1.09-2.25-2.29-3.49-3.29-5.08-4.59-12.17-5.54-19-4.6Z" transform="translate(-24.76 -24.5)"/><path class="cls-4" d="M198.07,138.12c11.31,6.12,18.61,19.33,14.43,31.5a28.85,28.85,0,0,1-6.3,10.53,46.27,46.27,0,0,0,4.28-11c2.83-11.71-3.66-23-12.41-31Z" transform="translate(-24.76 -24.5)"/><path class="cls-4" d="M210.88,154.27c-.77-6,5.38-11.78,11.7-11.26a45.74,45.74,0,0,0-6.59,5,36.92,36.92,0,0,0-5.11,6.31Z" transform="translate(-24.76 -24.5)"/><path class="cls-4" d="M214.55,283.44c14.69-6.69,21.44-18.27,15-33.11a45.48,45.48,0,0,0-7.77-11.82,29.66,29.66,0,0,1,8.28,7.53c11.47,15.25,4.14,33.89-15.56,37.4Z" transform="translate(-24.76 -24.5)"/><path class="cls-4" d="M141.9,261.63c-4.19,9.07-4.34,18.4,4.24,25.09a53.82,53.82,0,0,0,8.41,5.24c-7.71-1.31-15.66-6.18-17.43-13.89-1.51-5.75.8-12.1,4.78-16.44Z" transform="translate(-24.76 -24.5)"/><path class="cls-4" d="M157.52,266.59c11.89-5.68,27.77-3.86,35.85,6.79a28.28,28.28,0,0,1,5.29,11.18,46.84,46.84,0,0,0-6.91-9.93c-8.51-9.3-22.11-10.63-34.23-8Z" transform="translate(-24.76 -24.5)"/><path class="cls-4" d="M186.77,268.92c-3.39-9.39,1.14-22.1,11.89-24.94-8.43,6.15-11.14,15.28-11.89,24.94Z" transform="translate(-24.76 -24.5)"/><path class="cls-4" d="M204.22,193c13.37-6,26.77,2,27.49,15.88a44.58,44.58,0,0,0-4.22-7.6c-5.11-7.5-14.3-9.41-23.27-8.28Z" transform="translate(-24.76 -24.5)"/><path class="cls-4" d="M212.25,290.81c3.79,14.44-7.2,24.53-22.13,18.53a44.68,44.68,0,0,0,8.93-.26c9.86-1.26,12.52-10.06,13.2-18.27Z" transform="translate(-24.76 -24.5)"/><path class="cls-4" d="M209.5,332.86a19.42,19.42,0,0,0,5.07-8.45l1.86,1.25a12.86,12.86,0,0,1-5.62,1.95,12.57,12.57,0,0,1-10.56-4,16.49,16.49,0,0,1-2.92-4.47c.69.58,1.34,1.18,2,1.77,4.52,3.95,10.06,5.77,15.76,2.9l2.9-1.54L216.91,325a13.94,13.94,0,0,1-7.41,7.84Z" transform="translate(-24.76 -24.5)"/><path class="cls-4" d="M258.69,135.31s-6.83-8.14-5.2-18.11,12.93-17.55,23.92-10.67c0,0,18.56-3.37,25.84,7,0,0,23.77.42,25.1,21.76,0,0,18.27,5.2,11.74,26.26,0,0,25.4,8.14,16.78,33.83,0,0,17.38,9,8.32,21.49,0,0,6.24,11.65-.89,20.35,0,0,18.42,17.83-2.23,40.72,0,0-.15,22.75-13.81,34.68s-27.63,12.07-27.63,12.07-5.44,6.89-13.24,9.13c-11.07,3.18-16.91-1-16.91-1A17,17,0,0,1,276.37,339c-9.36-.42-19-12.63-18.57-35.38,0,0-8.46-22.32,7-42.68,0,0-16.34-19.51-2.67-41.42,0,0-5.94-3.65-6.83-13.34s8.91-19.65,8.91-19.65-5.05-13.76,0-22C264.19,164.52,252,154.55,258.69,135.31Z" transform="translate(-24.76 -24.5)"/><path class="cls-11" d="M258.69,135.31s-6.83-8.14-5.2-18.11,12.93-17.55,23.92-10.67c0,0,18.56-3.37,25.84,7,0,0,23.77.42,25.1,21.76,0,0,18.27,5.2,11.74,26.26,0,0,25.4,8.14,16.78,33.83,0,0,17.38,9,8.32,21.49,0,0,6.24,11.65-.89,20.35,0,0,18.42,17.83-2.23,40.72,0,0-.15,22.75-13.81,34.68s-27.63,12.07-27.63,12.07-5.44,6.89-13.24,9.13c-11.07,3.18-16.91-1-16.91-1A17,17,0,0,1,276.37,339c-9.36-.42-19-12.63-18.57-35.38,0,0-8.46-22.32,7-42.68,0,0-16.34-19.51-2.67-41.42,0,0-5.94-3.65-6.83-13.34s8.91-19.65,8.91-19.65-5.05-13.76,0-22C264.19,164.52,252,154.55,258.69,135.31Z" transform="translate(-24.76 -24.5)"/><g class="cls-13"><path class="cls-6" d="M275.94,106.11a17.83,17.83,0,0,0-3.24-1.67,17.15,17.15,0,0,1,3.85,1.59Z" transform="translate(-24.76 -24.5)"/><path class="cls-6" d="M362.07,278s-.15,22.75-13.81,34.68-27.63,12.08-27.63,12.08-5.43,6.88-13.24,9.12c-11.07,3.18-16.91-1-16.91-1A17,17,0,0,1,276.37,339c-6.3-.28-12.74-5.91-16.13-16.5,2.93,3.65,6.46,5.63,10,5.86a16.29,16.29,0,0,0,13.62-5.65s5.5,4.09,16.15,1.25c7.5-2,12.84-8.49,12.84-8.49s13.35.12,26.66-11,13.91-32.9,13.91-32.9c20.21-21.51,3-38.9,3-38.9,7-8.19,1.27-19.44,1.27-19.44,8.91-11.79-7.52-20.69-7.52-20.69,8.76-24.41-15.35-32.65-15.35-32.65,6.67-20-10.7-25.32-10.7-25.32-.83-20.44-23.55-21.27-23.55-21.27-3.07-4.57-8.42-6.47-13.35-7.18,5.65.4,12.36,2.11,16.09,7.44,0,0,23.77.42,25.11,21.76,0,0,18.26,5.2,11.73,26.26,0,0,25.4,8.14,16.78,33.84,0,0,17.38,9,8.32,21.48,0,0,6.23,11.65-.89,20.35C364.3,237.24,382.71,255.08,362.07,278Z" transform="translate(-24.76 -24.5)"/><path class="cls-11" d="M275.94,106.11a17.83,17.83,0,0,0-3.24-1.67,17.15,17.15,0,0,1,3.85,1.59Z" transform="translate(-24.76 -24.5)"/><path class="cls-12" d="M362.07,278s-.15,22.75-13.81,34.68-27.63,12.08-27.63,12.08-5.43,6.88-13.24,9.12c-11.07,3.18-16.91-1-16.91-1A17,17,0,0,1,276.37,339c-6.3-.28-12.74-5.91-16.13-16.5,2.93,3.65,6.46,5.63,10,5.86a16.29,16.29,0,0,0,13.62-5.65s5.5,4.09,16.15,1.25c7.5-2,12.84-8.49,12.84-8.49s13.35.12,26.66-11,13.91-32.9,13.91-32.9c20.21-21.51,3-38.9,3-38.9,7-8.19,1.27-19.44,1.27-19.44,8.91-11.79-7.52-20.69-7.52-20.69,8.76-24.41-15.35-32.65-15.35-32.65,6.67-20-10.7-25.32-10.7-25.32-.83-20.44-23.55-21.27-23.55-21.27-3.07-4.57-8.42-6.47-13.35-7.18,5.65.4,12.36,2.11,16.09,7.44,0,0,23.77.42,25.11,21.76,0,0,18.26,5.2,11.73,26.26,0,0,25.4,8.14,16.78,33.84,0,0,17.38,9,8.32,21.48,0,0,6.23,11.65-.89,20.35C364.3,237.24,382.71,255.08,362.07,278Z" transform="translate(-24.76 -24.5)"/></g><path class="cls-4" d="M287.16,106.11a43.48,43.48,0,0,0-9.75.42c-.29-.18-.57-.34-.86-.5A42.28,42.28,0,0,1,287.16,106.11Z" transform="translate(-24.76 -24.5)"/><path class="cls-11" d="M287.16,106.11a43.48,43.48,0,0,0-9.75.42c-.29-.18-.57-.34-.86-.5A42.28,42.28,0,0,1,287.16,106.11Z" transform="translate(-24.76 -24.5)"/><path class="cls-4" d="M365.19,216.89c-2.55,3.75-8.33,4.42-12.56,3.09a13.94,13.94,0,0,1-9.37-8.76,34,34,0,0,0,4.82,3.86c5,3.16,11.53,4.64,17.11,1.81Z" transform="translate(-24.76 -24.5)"/><path class="cls-4" d="M257.8,303.65c13.74,5.23,19,4.69,31.59-2.57-8.77,10.34-21.1,11.41-31.59,2.57Z" transform="translate(-24.76 -24.5)"/><path class="cls-4" d="M320.63,324.71c4.23-6.29,5.51-13.79,6.78-21,2.6,7.23.51,16.93-6.78,21Z" transform="translate(-24.76 -24.5)"/><path class="cls-4" d="M364.3,237.24a22.24,22.24,0,0,1-11.93,9.84c-5,1.81-12.06,1.07-14.86-3.66.32.18.93.59,1.23.77a14.48,14.48,0,0,0,2.14.91c8.7,2.63,16.82-3,23.42-7.86Z" transform="translate(-24.76 -24.5)"/><path class="cls-4" d="M328.35,135.31a11.2,11.2,0,0,1-1,7.64l0-1.2a15.56,15.56,0,0,1,2.2,4.31c1.57,4.48.71,10-3.16,13.19a18.78,18.78,0,0,0-1-16.34l-.37-.73c1.72-1.91,2.44-4.46,3.26-6.87Z" transform="translate(-24.76 -24.5)"/><path class="cls-4" d="M340.09,161.57c.1,4.23-3.34,8.46-7.73,9.4a61.88,61.88,0,0,0,7.73-9.4Z" transform="translate(-24.76 -24.5)"/><path class="cls-4" d="M303.25,113.55c3.81,3.8,6.38,9.32,5.5,14.6-1.61-5-3.85-9.67-5.5-14.6Z" transform="translate(-24.76 -24.5)"/><path class="cls-4" d="M283.13,126.75c0-7.27-1.19-14.19-5.72-20.22,7.55,3.5,9.64,13.56,5.72,20.22Z" transform="translate(-24.76 -24.5)"/><path class="cls-4" d="M269.76,143c-4.82,0-9.94-3.14-11.07-7.7a51,51,0,0,0,11.07,7.7Z" transform="translate(-24.76 -24.5)"/><path class="cls-4" d="M264.19,164.52a15.72,15.72,0,0,1,8.17,4.7,11.18,11.18,0,0,1-8.17-4.7Z" transform="translate(-24.76 -24.5)"/><path class="cls-4" d="M264.19,186.56c1.74,1.29,4.15,2.94,5.95,4.17s4.24,2.87,5.93,4.25c-4.87-.84-9.92-4-11.88-8.42Z" transform="translate(-24.76 -24.5)"/><path class="cls-4" d="M262.11,219.55c5.26,1.9,10.49,3.65,15.3,6.46-5.58-.58-11.34-2.59-15.3-6.46Z" transform="translate(-24.76 -24.5)"/><path class="cls-4" d="M349,216.5a28.43,28.43,0,0,1-19.68,19.42c-9.72,2.66-21,.43-28-6.72a33.11,33.11,0,0,1-9-16.12,44,44,0,0,0,10.92,14.24c9,7.82,23.27,8.26,33.4,2.15a36,36,0,0,0,12.34-13Z" transform="translate(-24.76 -24.5)"/><path class="cls-4" d="M319.49,212.91c4.84-10.79,5.06-23.46-2.43-33.14a57.75,57.75,0,0,0-8.31-8.8,33.66,33.66,0,0,1,10,7.6c8.84,9.41,8.73,24.48.76,34.34Z" transform="translate(-24.76 -24.5)"/><path class="cls-4" d="M345.43,180.52c-6.79-.94-13.88,0-19,4.6-1.23,1-2.29,2.2-3.49,3.29,2.54-9.21,14.19-13.22,22.45-7.89Z" transform="translate(-24.76 -24.5)"/><path class="cls-4" d="M301.91,138.12c-8.75,8-15.24,19.29-12.4,31a45.85,45.85,0,0,0,4.28,11,28.88,28.88,0,0,1-6.31-10.53c-4.18-12.17,3.13-25.38,14.43-31.5Z" transform="translate(-24.76 -24.5)"/><path class="cls-4" d="M289.1,154.27A36.92,36.92,0,0,0,284,148a46.2,46.2,0,0,0-6.58-5c6.31-.52,12.46,5.26,11.69,11.26Z" transform="translate(-24.76 -24.5)"/><path class="cls-4" d="M285.43,283.44c-19.71-3.52-27-22.16-15.55-37.4a29.62,29.62,0,0,1,8.27-7.53,46,46,0,0,0-7.77,11.82c-6.39,14.85.37,26.43,15.05,33.11Z" transform="translate(-24.76 -24.5)"/><path class="cls-4" d="M358.08,261.63c4,4.34,6.29,10.69,4.78,16.44-1.77,7.71-9.72,12.57-17.43,13.89a53.36,53.36,0,0,0,8.41-5.24c8.59-6.69,8.43-16,4.24-25.09Z" transform="translate(-24.76 -24.5)"/><path class="cls-4" d="M342.46,266.59c-12.12-2.59-25.72-1.26-34.23,8a46.84,46.84,0,0,0-6.91,9.93,28.56,28.56,0,0,1,5.29-11.18c8.08-10.65,24-12.47,35.85-6.79Z" transform="translate(-24.76 -24.5)"/><path class="cls-4" d="M313.22,268.92c-.75-9.66-3.47-18.79-11.9-24.94,10.76,2.84,15.28,15.55,11.9,24.94Z" transform="translate(-24.76 -24.5)"/><path class="cls-4" d="M295.76,193c-9-1.13-18.15.78-23.26,8.28a44.62,44.62,0,0,0-4.23,7.6C269,195,282.4,187,295.76,193Z" transform="translate(-24.76 -24.5)"/><path class="cls-4" d="M287.73,290.81c.68,8.21,3.35,17,13.21,18.27a44.58,44.58,0,0,0,8.92.26c-14.95,6-25.91-4.11-22.13-18.53Z" transform="translate(-24.76 -24.5)"/><path class="cls-4" d="M290.48,332.86a14,14,0,0,1-7.41-7.84L282,322.23l2.91,1.54c5.7,2.87,11.24,1.05,15.75-2.9.63-.59,1.28-1.19,2-1.77a16.76,16.76,0,0,1-2.93,4.47,12.55,12.55,0,0,1-10.56,4,12.91,12.91,0,0,1-5.62-1.95l1.86-1.25a19.61,19.61,0,0,0,5.07,8.45Z" transform="translate(-24.76 -24.5)"/><g class="cls-14"><path class="cls-6" d="M154.84,195.43c3.86.65,8.86-19.27,30.28-42.33,9.51-10.24,45.61-23.06,43-34.88s-34.81.34-51,19.11C151.06,167.53,151.29,194.84,154.84,195.43Z" transform="translate(-24.76 -24.5)"/><path class="cls-6" d="M350.71,233.44c7.1.29,7.57-10.73.46-11S343.61,233.14,350.71,233.44Z" transform="translate(-24.76 -24.5)"/><path class="cls-6" d="M309.1,309.62c3.76,3.12,26.74-8.18,36.1-28.56,7.76-16.9,10-39.21,5.2-40.06-7.14-1.27-9.86,20-16.23,35.68C328.3,291.17,305.09,306.29,309.1,309.62Z" transform="translate(-24.76 -24.5)"/></g><rect class="cls-6" x="215.21" y="248.16" width="4" height="134.61" transform="translate(-78.96 20.73) rotate(-10.58)"/><rect class="cls-6" x="215.49" y="313.45" width="134.61" height="4" transform="translate(-103.87 511.2) rotate(-79.45)"/><path class="cls-6" d="M250,293.74c-6.68,0-13.4-5.26-18.91-14.8l-.44-.78c-2.14,2.23-4.53,3.6-7.05,3.6-12.83,0-17.89-26-18.1-27.13l2.95-.55c1.3,6.86,6.55,24.68,15.15,24.68h0c1.88,0,3.81-1.3,5.59-3.41-5.29-10.83-8.29-24.88-4.41-31.61a6.78,6.78,0,0,1,6.15-3.6h0c5.76,0,9.06,4.55,9.07,12.48a44.08,44.08,0,0,1-7.29,23c.31.6.64,1.19,1,1.78,4.88,8.45,10.82,13.3,16.31,13.3h0c5,0,10.05-4,14.23-11.24.3-.52.6-1.06.88-1.6a24,24,0,0,1-2.79-3.92c-5.23-9.05-6.3-22.52-2.33-29.39,1.68-2.92,4.14-4.46,7.11-4.46h0a6.31,6.31,0,0,1,5.63,3.45c3.72,6.44,1.77,21.67-4,33.75a11.5,11.5,0,0,0,7.81,3.13h0c7.35,0,13.95-18,15.87-24.88l2.89.81c-.77,2.77-7.83,27.07-18.76,27.07h0a14.4,14.4,0,0,1-9.2-3.39l-.53.93C262,289.33,256.2,293.73,250,293.74Zm17.1-50.61h0a5.12,5.12,0,0,0-4.51,3c-3.44,6-2.35,18.29,2.33,26.39a21.24,21.24,0,0,0,1.63,2.45c4.83-10.88,6.66-24.53,3.58-29.85A3.32,3.32,0,0,0,267.1,243.13Zm-36.17,0h0a3.8,3.8,0,0,0-3.55,2.1c-2.82,4.89-1,16.77,3.8,27.32A41.78,41.78,0,0,0,237,252.62C237,248.29,235.94,243.14,230.93,243.14Z" transform="translate(-24.76 -24.5)"/><rect class="cls-15" x="172.59" y="350.08" width="105.28" height="57.94"/><path class="cls-15" d="M290.7,432.52c-6.2,11-18.07,20.8-40.71,20.8s-34.51-9.82-40.7-20.8Z" transform="translate(-24.76 -24.5)"/><path class="cls-16" d="M290.7,432.52a39.2,39.2,0,0,1-6.83,8.91l-72.48-5.56a37.28,37.28,0,0,1-2.1-3.35Z" transform="translate(-24.76 -24.5)"/><polygon class="cls-16" points="280.95 361.14 169.52 371.44 169.52 366.38 280.95 356.08 280.95 361.14"/><polygon class="cls-16" points="280.95 376.43 169.52 386.73 169.52 381.68 280.95 371.38 280.95 376.43"/><polygon class="cls-16" points="280.95 391.73 169.52 402.03 169.52 396.98 280.95 386.67 280.95 391.73"/></g><g id="Lines"><path class="cls-17" d="M248.39,75.52A278,278,0,0,1,247.77,42a274,274,0,0,1,.62,33.54Z" transform="translate(-24.76 -24.5)"/><path class="cls-17" d="M171.82,96.89a275.45,275.45,0,0,1-17.31-28.74,275.45,275.45,0,0,1,17.31,28.74Z" transform="translate(-24.76 -24.5)"/><path class="cls-17" d="M116.18,153.68a274.11,274.11,0,0,1-29.35-16.24,275.87,275.87,0,0,1,29.35,16.24Z" transform="translate(-24.76 -24.5)"/><path class="cls-17" d="M96.4,230.68a276,276,0,0,1-33.54.62,274,274,0,0,1,33.54-.62Z" transform="translate(-24.76 -24.5)"/><path class="cls-17" d="M117.77,307.26A277.11,277.11,0,0,1,89,324.56a272.63,272.63,0,0,1,28.74-17.3Z" transform="translate(-24.76 -24.5)"/><path class="cls-17" d="M383.77,304.51a275.87,275.87,0,0,1,29.35,16.24,274.11,274.11,0,0,1-29.35-16.24Z" transform="translate(-24.76 -24.5)"/><path class="cls-17" d="M403.55,227.51a276,276,0,0,1,33.54-.61,276,276,0,0,1-33.54.61Z" transform="translate(-24.76 -24.5)"/><path class="cls-17" d="M382.19,150.94a274.28,274.28,0,0,1,28.73-17.31,275.31,275.31,0,0,1-28.73,17.31Z" transform="translate(-24.76 -24.5)"/><path class="cls-17" d="M325.39,95.3A275.87,275.87,0,0,1,341.63,66,275.87,275.87,0,0,1,325.39,95.3Z" transform="translate(-24.76 -24.5)"/></g><g id="Paper_planes" data-name="Paper planes"><path class="cls-17" d="M277.43,481.9l0-.75c1.34,0,2.68-.1,4-.2l.06.75C280.14,481.79,278.79,481.86,277.43,481.9Zm-5,0-2.12-.08-1.89-.13.06-.75c.62.05,1.24.1,1.87.13l2.1.08Zm14-.74-.1-.74c1.32-.19,2.64-.41,3.91-.67l.15.74C289.09,480.74,287.76,481,286.42,481.16Zm-23-.13c-1.31-.23-2.63-.52-3.93-.85l.18-.73c1.29.33,2.59.61,3.88.84Zm31.84-1.69-.2-.73c1.28-.35,2.56-.74,3.8-1.16l.24.71C297.84,478.58,296.55,479,295.26,479.34Zm-40.57-.61c-1.24-.43-2.51-.92-3.75-1.44l.29-.7c1.23.52,2.48,1,3.7,1.43Zm49.1-2.37-.29-.69c1.21-.51,2.42-1.07,3.6-1.66l.33.67C306.24,475.28,305,475.84,303.79,476.36Zm-57.4-1.2c-1.16-.59-2.35-1.24-3.52-1.92l.37-.65c1.17.67,2.34,1.32,3.49,1.9Zm65.46-2.86-.38-.65c1.12-.66,2.26-1.36,3.37-2.1l.42.63C314.13,470.92,313,471.63,311.85,472.3Zm-73.24-1.71c-1.11-.73-2.21-1.5-3.3-2.29l.44-.61c1.08.78,2.18,1.55,3.27,2.27Zm142.7-.15-1,0,0-.75a26.36,26.36,0,0,0,3.94-.15l.08.74A26.82,26.82,0,0,1,381.31,470.44Zm-6-.73a23.19,23.19,0,0,1-3.81-1.31l.3-.69a23.11,23.11,0,0,0,3.7,1.27Zm14-.39-.19-.72c.68-.18,1.36-.39,2.07-.62s1.14-.39,1.7-.6l.26.7c-.56.22-1.14.42-1.73.62S390,469.14,389.33,469.32Zm-70-2-.45-.6c1-.77,2.08-1.59,3.14-2.44l.47.58C321.47,465.7,320.4,466.53,319.37,467.3Zm47.76-1.37a30.53,30.53,0,0,1-3.17-2.49l.5-.56a33.28,33.28,0,0,0,3.09,2.44Zm30.61,0-.38-.65A25.77,25.77,0,0,0,400.6,463l.47.59A26.46,26.46,0,0,1,397.74,465.91Zm-166.43-.65c-1-.81-2.06-1.67-3.09-2.55l.48-.57c1,.87,2.05,1.71,3.08,2.54Zm95.06-3.65-.5-.56c1-.88,2-1.77,3-2.67l.51.55C328.36,459.84,327.37,460.73,326.37,461.61Zm78.3-1.57-.59-.47a21.36,21.36,0,0,0,2.19-3.26l.66.36A23.05,23.05,0,0,1,404.67,460Zm-44.26-.16c-.85-1-1.71-2-2.56-3.11l.6-.45c.84,1.09,1.69,2.12,2.52,3.06Zm-136-.48q-1.47-1.33-2.94-2.73l.52-.54c1,.92,1.94,1.83,2.92,2.72ZM333,455.48l-.52-.54c1-.92,1.91-1.86,2.85-2.8l.53.53C334.88,453.61,333.93,454.55,333,455.48Zm-115-2.31c-.94-.94-1.88-1.89-2.81-2.86l.54-.52c.93,1,1.86,1.91,2.8,2.85Zm137-.49c-.71-1.06-1.44-2.2-2.16-3.38l.64-.39c.72,1.17,1.44,2.3,2.14,3.36Zm53.93-.69-.72-.21a23.35,23.35,0,0,0,.77-3.86l.75.09A24.83,24.83,0,0,1,408.87,452Zm-69.51-2.87-.53-.52,2.81-2.85.54.53Zm-127.69-2.44c-.91-1-1.82-1.95-2.72-2.94l.55-.5,2.71,2.93ZM350.25,445c-.64-1.15-1.28-2.33-1.92-3.53l.66-.35c.64,1.2,1.27,2.37,1.92,3.51ZM409,443a26.16,26.16,0,0,0-.6-3.89l.73-.17a27.59,27.59,0,0,1,.62,4Zm-63.3-.25-.52-.53c.95-.94,1.9-1.87,2.87-2.79l.52.54C347.61,440.89,346.66,441.82,345.71,442.75ZM205.58,440l-2.66-3,.56-.5,2.66,3ZM346,437c-.6-1.18-1.2-2.37-1.8-3.58l.68-.34c.59,1.21,1.19,2.4,1.79,3.58Zm6.2-.44-.5-.55c1-.9,2-1.78,3-2.65l.48.57C354.2,434.79,353.21,435.67,352.22,436.56Zm54.67-2.14a27,27,0,0,0-1.8-3.51l.64-.39a27.89,27.89,0,0,1,1.85,3.61Zm-207.27-1.11-2.65-3,.57-.49,2.64,3Zm159.45-2.54-.46-.59c1.07-.85,2.16-1.66,3.21-2.42l.44.61C361.21,429.12,360.14,429.93,359.07,430.77ZM342,428.92l-1.75-3.6.67-.33,1.75,3.6Zm60.14-2a26,26,0,0,0-2.84-2.72l.47-.58a26.68,26.68,0,0,1,2.93,2.8Zm-208.49-.41-2.66-3,.56-.5,2.66,3Zm172.71-1L366,425c1.14-.72,2.3-1.41,3.45-2.06l.37.66C368.66,424.2,367.51,424.88,366.38,425.59Zm28.83-4a22.36,22.36,0,0,0-3.64-1.47l.22-.72a22.94,22.94,0,0,1,3.76,1.52Zm-21-.18-.29-.7a32.66,32.66,0,0,1,3.82-1.32l.2.73A31.15,31.15,0,0,0,374.24,421.37Zm-36.16-.55c-.59-1.19-1.17-2.39-1.77-3.59l.67-.33c.6,1.2,1.19,2.4,1.77,3.59Zm-150.41-1c-.89-1-1.79-2-2.69-3l.56-.51c.9,1,1.79,2,2.69,3Zm195.15-.61-.07-.75a26.25,26.25,0,0,1,4.06,0l-.06.75A24.59,24.59,0,0,0,382.82,419.19Zm-201.24-6c-.91-1-1.83-1.94-2.75-2.89l.54-.52c.92.95,1.84,1.92,2.76,2.9Zm152.49-.41c-.6-1.18-1.21-2.37-1.83-3.55l.66-.35c.62,1.19,1.24,2.37,1.84,3.56Zm-158.75-6c-.95-.94-1.9-1.87-2.86-2.79l.52-.54c1,.92,1.92,1.85,2.87,2.8Zm154.57-1.92c-.63-1.17-1.28-2.34-1.94-3.5l.65-.37q1,1.76,1.95,3.51Zm-161.08-4.27c-1-.9-2-1.78-3-2.64l.49-.57c1,.86,2,1.75,3,2.65ZM325.43,397c-.68-1.14-1.38-2.28-2.09-3.41l.63-.4c.72,1.14,1.42,2.28,2.11,3.42ZM162,394.71c-1.06-.84-2.13-1.66-3.16-2.43l.44-.6c1.05.77,2.12,1.59,3.18,2.44Zm-7.23-5.3c-1.12-.75-2.25-1.47-3.36-2.14l.39-.64c1.12.68,2.26,1.4,3.38,2.16Zm165.86,0q-1.12-1.65-2.28-3.27l.61-.44c.78,1.09,1.54,2.19,2.29,3.29Zm-173.54-4.58c-1.17-.62-2.37-1.21-3.56-1.76l.31-.68c1.2.55,2.41,1.15,3.6,1.78Zm168.27-2.68c-.83-1.06-1.67-2.1-2.51-3.1l.57-.48c.85,1,1.7,2.05,2.53,3.12Zm-176.42-1-1.59-.58.24-.71,1.62.59Zm170.61-5.83c-.9-1-1.83-1.94-2.76-2.87l.53-.53c.94.93,1.88,1.9,2.78,2.89ZM303.14,369c-1-.89-2-1.75-3-2.58l.47-.59c1,.84,2.06,1.71,3.07,2.61Z" transform="translate(-24.76 -24.5)"/><path class="cls-17" d="M102.41,247.7l-1.5,0,0-.75c1.28,0,2.6,0,4,0l0,.75C104.07,247.69,103.23,247.7,102.41,247.7Zm-6.52-.29c-1.4-.14-2.74-.33-4-.56l.13-.73c1.23.22,2.55.41,3.93.54Zm14,0-.06-.75c1.3-.1,2.62-.22,4-.36l.08.75C112.57,247.18,111.24,247.3,109.94,247.4Zm9-1-.1-.74c1.29-.18,2.61-.38,4-.59l.12.74C121.53,246,120.21,246.24,118.91,246.42ZM87,245.57a20.26,20.26,0,0,1-3.68-1.74l.4-.64a18.65,18.65,0,0,0,3.53,1.67Zm40.81-.61-.14-.73c1.29-.24,2.6-.5,3.92-.77l.15.73C130.42,244.47,129.11,244.72,127.82,245Zm8.83-1.82-.17-.73c1.29-.29,2.58-.59,3.9-.91l.17.73C139.24,242.55,137.94,242.85,136.65,243.14Zm8.76-2.12-.18-.73,3.86-1,.2.72C148,240.35,146.69,240.69,145.41,241Zm-65.82-.69a9.73,9.73,0,0,1-.91-1.68,13.53,13.53,0,0,1-.71-2.09l.73-.18a13.56,13.56,0,0,0,.67,2,9.11,9.11,0,0,0,.85,1.56Zm74.52-1.68-.2-.72,3.83-1.12.22.72Zm8.64-2.58-.23-.72c1.27-.39,2.54-.8,3.81-1.21l.23.72Zm8.57-2.78-.24-.71,3.79-1.29.24.71Zm-93-1.75-.75-.06a22.28,22.28,0,0,1,.73-4l.73.21A20.53,20.53,0,0,0,78.34,231.54Zm101.5-1.19-.25-.71,3.76-1.36.25.71Zm8.46-3.11-.27-.7,3.74-1.42.27.7C190.79,226.3,189.54,226.78,188.3,227.24Zm8.4-3.25-.28-.7c1.24-.48,2.47-1,3.72-1.48l.28.69Zm-115.92-.92-.68-.32c.54-1.15,1.17-2.35,1.88-3.57l.65.38C81.93,220.75,81.31,221.94,80.78,223.07Zm124.27-2.47-.29-.69,3.69-1.55.29.69Zm8.29-3.52-.3-.69,3.66-1.61.31.69Zm-128-1.69-.61-.43c.74-1.05,1.55-2.14,2.41-3.22l.59.46C86.87,213.28,86.06,214.35,85.33,215.39Zm136.24-2-.3-.68,3.63-1.66.32.68Zm8.18-3.78-.32-.67,3.61-1.72.33.68C232.16,208.5,231,209.08,229.75,209.64ZM90.91,208.37l-.57-.49c.86-1,1.77-2,2.7-3l.55.51C92.66,206.41,91.76,207.4,90.91,208.37Zm147-2.63-.33-.67,3.59-1.77.33.67C240.27,204.57,239.07,205.16,237.87,205.74ZM97.08,201.85l-.53-.54c1-.93,1.91-1.86,2.89-2.78l.51.55C99,200,98,200.91,97.08,201.85Zm148.85-.13-.34-.67,3.56-1.82.35.67Zm8-4.14-.35-.66,3.54-1.88.35.66Zm-150.29-1.87-.5-.56q1.52-1.35,3-2.64l.48.57C105.65,193.94,104.64,194.82,103.64,195.71Zm158.23-2.39-.36-.66,3.51-1.93.36.66Zm-151.38-3.44-.48-.58c1.06-.86,2.1-1.7,3.13-2.51l.47.59C112.58,188.19,111.54,189,110.49,189.88Zm159.25-.94-.37-.65,3.48-2,.37.65Zm7.81-4.5-.38-.65c1.15-.67,2.29-1.35,3.44-2l.39.65Zm-160-.12-.46-.59c1.1-.84,2.18-1.63,3.23-2.4l.44.61C119.74,182.7,118.66,183.5,117.57,184.32Zm167.73-4.51-.39-.64,3.42-2.1.39.64ZM124.85,179l-.43-.62.86-.59.43.61Zm168.13-4-.4-.63,3.38-2.15.4.63Zm7.59-4.88-.41-.63,3.33-2.2.42.62Zm7.49-5-.42-.62c1.11-.75,2.2-1.5,3.3-2.26l.43.62Zm7.41-5.13-.44-.61,3.25-2.31.44.61Zm7.29-5.25-.44-.6c1.07-.79,2.14-1.58,3.2-2.38l.45.6C324.91,153.21,323.84,154,322.76,154.79ZM330,149.4l-.45-.59,3.15-2.43.46.59C332.06,147.78,331,148.6,330,149.4Zm7.09-5.53-.46-.59,3.11-2.51.47.59C339.13,142.2,338.09,143,337,143.87Zm7-5.69-.48-.58,3.06-2.58.48.58Zm6.85-5.85-.49-.57c1-.87,2-1.76,3-2.64l.5.56Zm6.72-6-.51-.55c1-.9,2-1.81,2.94-2.72l.51.55C359.57,124.51,358.59,125.42,357.6,126.32Zm6.57-6.17-.52-.54,2.86-2.79.52.53C366.09,118.29,365.13,119.22,364.17,120.15Z" transform="translate(-24.76 -24.5)"/><polygon class="cls-4" points="343.92 65.18 339.35 95.05 357.3 74.18 432.77 28.4 343.92 65.18"/><polygon class="cls-11" points="343.92 65.18 339.35 95.05 357.3 74.18 432.77 28.4 343.92 65.18"/><polygon class="cls-4" points="361.33 80.12 339.35 95.05 357.3 74.18 361.33 80.12"/><polygon class="cls-18" points="361.33 80.12 339.35 95.05 357.3 74.18 361.33 80.12"/><polygon class="cls-4" points="357.3 74.18 432.77 28.4 379.05 106.87 357.3 74.18"/><polygon class="cls-19" points="357.3 74.18 432.77 28.4 379.05 106.87 357.3 74.18"/><polygon class="cls-4" points="343.92 65.18 305.74 50.11 432.77 28.4 343.92 65.18"/><polygon class="cls-19" points="343.92 65.18 305.74 50.11 432.77 28.4 343.92 65.18"/><polygon class="cls-4" points="99.82 333.33 112.69 355.7 91.94 344.63 17.71 331.49 99.82 333.33"/><polygon class="cls-11" points="99.82 333.33 112.69 355.7 91.94 344.63 17.71 331.49 99.82 333.33"/><polygon class="cls-4" points="90.57 350.6 112.69 355.7 91.94 344.63 90.57 350.6"/><polygon class="cls-18" points="90.57 350.6 112.69 355.7 91.94 344.63 90.57 350.6"/><polygon class="cls-4" points="91.94 344.63 17.71 331.49 84.73 377.38 91.94 344.63"/><polygon class="cls-19" points="91.94 344.63 17.71 331.49 84.73 377.38 91.94 344.63"/><polygon class="cls-4" points="99.82 333.33 125.57 309.54 17.71 331.49 99.82 333.33"/><polygon class="cls-19" points="99.82 333.33 125.57 309.54 17.71 331.49 99.82 333.33"/></g><g id="Pencil"><rect class="cls-4" x="334.34" y="281.02" width="135.33" height="34.17" transform="translate(-41.02 548.43) rotate(-69.87)"/><rect class="cls-12" x="320.78" y="290.4" width="135.46" height="5.37" transform="translate(-45.16 532.47) rotate(-69.87)"/><g class="cls-20"><path d="M370.81,353.46c19.27-54.63,21.81-62.07,42.18-116.31-19.26,54.64-21.82,62.08-42.18,116.31Z" transform="translate(-24.76 -24.5)"/><path d="M377.27,355.81c19.26-54.64,21.81-62.07,42.17-116.31-19.26,54.64-21.81,62.07-42.17,116.31Z" transform="translate(-24.76 -24.5)"/><path d="M383.72,358.16c19.26-54.64,21.81-62.08,42.17-116.31-19.26,54.64-21.81,62.07-42.17,116.31Z" transform="translate(-24.76 -24.5)"/><path d="M390.17,360.5c19.26-54.63,21.81-62.07,42.17-116.31-19.26,54.64-21.81,62.07-42.17,116.31Z" transform="translate(-24.76 -24.5)"/></g><rect class="cls-21" x="409.38" y="221.3" width="37.5" height="9.81" transform="translate(728.43 560.61) rotate(-160.02)"/><rect class="cls-21" x="405.68" y="231.5" width="37.5" height="9.81" transform="translate(717.76 579.12) rotate(-160.02)"/><path class="cls-4" d="M362.53,356.16l3.67,27.49,1.18,9.08,6.8-6.17,20.47-18.72L393.12,362s-4.78,3.47-4.88,3.51l-1.55-5.85s-4.78,3.47-4.88,3.51l-1.48-5.82s-4.85,3.44-4.95,3.48L373.9,355s-4.86,3.44-4.95,3.48l-1.49-5.82S362.63,356.11,362.53,356.16Z" transform="translate(-24.76 -24.5)"/><path class="cls-19" d="M362.53,356.16l3.67,27.49,1.18,9.08,6.8-6.17,20.47-18.72L393.12,362s-4.78,3.47-4.88,3.51l-1.55-5.85s-4.78,3.47-4.88,3.51l-1.48-5.82s-4.85,3.44-4.95,3.48L373.9,355s-4.86,3.44-4.95,3.48l-1.49-5.82S362.63,356.11,362.53,356.16Z" transform="translate(-24.76 -24.5)"/><polygon class="cls-17" points="341.44 359.15 342.62 368.23 349.43 362.06 341.44 359.15"/><path class="cls-22" d="M446.08,227.61l4.45-12.13a6.94,6.94,0,0,0-4.12-8.89l-19.51-7.15a6.91,6.91,0,0,0-8.88,4.11l-4.46,12.14Z" transform="translate(-24.76 -24.5)"/><path class="cls-12" d="M426.91,199.45l5.34,2a6.94,6.94,0,0,0-8.91,4.11l-4.44,12.12-5.33-1.95L418,203.57A6.94,6.94,0,0,1,426.91,199.45Z" transform="translate(-24.76 -24.5)"/></g><g id="Puzzle_pieces" data-name="Puzzle pieces"><path class="cls-15" d="M118.8,146.3a7.25,7.25,0,0,0,10.24,9,3.52,3.52,0,0,1,3.05-.23,3.47,3.47,0,0,1,2,4.51l-6.7,16.91L81,158.12l6.71-16.9a3.45,3.45,0,0,1,4.5-1.94,3.52,3.52,0,0,1,2.06,2.26A7.27,7.27,0,1,0,97.69,133a3.59,3.59,0,0,1-3,.24,3.47,3.47,0,0,1-2-4.5l6.72-16.93,16.9,6.7a3.46,3.46,0,0,0,4.51-1.94,3.52,3.52,0,0,0-.24-3,7.27,7.27,0,1,1,13.11-.85,7.19,7.19,0,0,1-4.57,4.24,3.61,3.61,0,0,0-2.26,2.06,3.48,3.48,0,0,0,2,4.5l16.93,6.72L139,147.11a3.5,3.5,0,0,1-4.53,1.93,3.61,3.61,0,0,1-2.06-2.26,7.14,7.14,0,0,0-4.21-4.55A7.25,7.25,0,0,0,118.8,146.3Z" transform="translate(-24.76 -24.5)"/><path class="cls-4" d="M112.28,57.67l6.65,42.21-15.4,2.43a3,3,0,0,1-3.4-2.48,3,3,0,0,1,.77-2.5,6.31,6.31,0,0,0,1.5-5.12,6.21,6.21,0,1,0-9.28,6.34,3.12,3.12,0,0,1,1.5,2.15,3,3,0,0,1-2.47,3.4l-15.43,2.43-2.43-15.4a3,3,0,0,0-3.4-2.47,3,3,0,0,0-2.14,1.5,6.22,6.22,0,1,1-6.32-9.31,6.14,6.14,0,0,1,5.09,1.53,3.11,3.11,0,0,0,2.51.77,3,3,0,0,0,2.47-3.4L70.07,64.32,85.5,61.89a3,3,0,0,1,3.4,2.5,3.1,3.1,0,0,1-.77,2.5A6.12,6.12,0,0,0,86.63,72a6.21,6.21,0,1,0,9.28-6.31,3,3,0,0,1-1.5-2.15,3,3,0,0,1,2.47-3.43Z" transform="translate(-24.76 -24.5)"/></g></svg>